<?xml version="1.0" standalone="no"?>
<!DOCTYPE svg PUBLIC "-//W3C//DTD SVG 20010904//EN"
 "http://www.w3.org/TR/2001/REC-SVG-20010904/DTD/svg10.dtd">
<svg version="1.0" xmlns="http://www.w3.org/2000/svg"
 width="512.000000pt" height="512.000000pt" viewBox="0 0 512.000000 512.000000"
 preserveAspectRatio="xMidYMid meet">

<g transform="translate(0.000000,512.000000) scale(0.100000,-0.100000)"
fill="#000000" stroke="none">
<path d="M1130 3945 l-1125 -403 2 -28 c0 -16 67 -366 148 -779 148 -759 195
-1000 264 -1358 21 -109 40 -200 43 -202 2 -2 67 12 143 31 268 67 1800 455
1819 461 16 5 18 1 13 -28 -4 -19 -13 -88 -22 -154 -8 -66 -18 -134 -21 -151
l-6 -30 84 3 c167 7 775 33 863 38 88 5 185 9 430 20 66 3 158 7 205 10 47 2
146 7 220 10 74 3 171 8 215 10 44 2 145 7 225 10 162 7 251 13 257 19 5 5
143 2008 143 2079 l0 59 -242 -6 c-226 -5 -363 -8 -1178 -21 -643 -10 -885
-18 -890 -26 -3 -5 -21 -114 -40 -243 -19 -130 -36 -233 -39 -230 -3 2 -39
125 -81 272 -221 770 -293 1018 -299 1028 -4 8 -388 -125 -1131 -391z m1063
-309 c27 -98 45 -181 40 -186 -4 -4 -314 -91 -687 -194 -374 -102 -681 -188
-683 -190 -7 -7 114 -430 125 -434 6 -2 283 72 617 164 333 91 608 164 611
162 7 -7 104 -361 100 -366 -4 -3 -195 -57 -781 -217 -214 -58 -404 -110 -421
-116 l-31 -10 73 -266 c41 -147 71 -270 66 -274 -15 -13 -425 -120 -432 -112
-8 9 -470 1691 -470 1710 0 6 8 14 18 17 9 3 413 114 897 246 484 133 882 244
884 246 15 15 30 -22 74 -180z m1758 -281 c330 -35 517 -101 633 -225 91 -97
130 -240 108 -391 -36 -246 -214 -379 -622 -462 -69 -14 -192 -38 -275 -53
-251 -44 -383 -96 -431 -169 -9 -14 -14 -29 -10 -32 8 -8 12 -8 196 -19 80 -4
147 -8 150 -9 3 -1 75 -5 160 -9 85 -5 162 -10 170 -11 8 -2 83 -6 165 -10 83
-4 157 -9 165 -10 8 -1 70 -6 138 -10 l123 -7 -7 -127 c-4 -69 -8 -133 -10
-141 -1 -8 -3 -35 -3 -58 l-1 -44 -77 6 c-43 3 -121 8 -173 11 -52 3 -124 8
-160 10 -126 8 -226 15 -315 20 -49 3 -124 7 -165 10 -146 10 -396 25 -500 30
-58 3 -127 8 -155 10 -51 4 -285 18 -319 19 -17 0 -18 8 -12 116 12 214 42
296 142 395 139 137 317 199 894 310 365 70 495 136 501 252 4 73 -2 94 -36
132 -27 29 -51 44 -103 60 -119 37 -199 46 -422 46 -182 0 -222 -3 -260 -18
-109 -43 -162 -106 -181 -216 l-11 -62 -47 5 c-25 3 -109 8 -186 12 -77 3
-147 8 -155 9 -8 2 -21 4 -28 4 -10 1 -12 14 -7 54 40 333 222 520 560 573
111 17 403 17 566 -1z"/>
</g>
</svg>
